<svg width="316" height="71" viewBox="0 0 316 71" fill="none" xmlns="http://www.w3.org/2000/svg">
<path d="M110.514 47.5772H82.6987V42.3437L99.366 26.4967H82.8084V20.3483H110.368V25.5818L93.0062 41.3555H110.514V47.5772Z" fill="white"/>
<path d="M131.246 47.9797C117.905 47.9797 116.37 39.5988 116.37 34.1823V20.3483H123.899V33.9993C123.899 37.1102 124.777 41.5751 131.685 41.5751H131.867C138.812 41.5751 139.58 37.1102 139.58 33.9993V20.3483H147.073V34.1823C147.073 39.6354 145.135 47.9797 132.306 47.9797H131.246Z" fill="white"/>
<path d="M161.133 26.3504V32.1328H171.623C174.693 32.1328 175.534 30.8153 175.534 29.2416V29.1684C175.534 27.6313 174.693 26.3504 171.623 26.3504H161.133ZM177.691 34.4751C181.382 35.3169 183.612 37.5493 183.612 41.5385V44.3565C183.612 46.406 183.831 46.955 184.05 47.3942V47.5772H176.265C176.155 47.3942 176.009 46.8818 176.009 45.6741V43.4416C176.009 39.9282 174.73 38.3179 170.929 38.3179H161.133V47.5772H153.603V20.3483H171.915C182.259 20.3483 183.429 24.6669 183.429 27.6313V27.9973C183.429 31.4009 181.09 33.7065 177.691 34.4751Z" fill="white"/>
<path d="M203.658 48.0529H202.598C189.842 48.0529 188.38 42.2705 188.38 39.0132V38.6107H196.567C196.677 39.8184 197.189 42.5266 202.964 42.5266H203.22C208.885 42.5266 209.616 40.8065 209.616 39.2694C209.616 37.6591 208.556 36.5978 204.06 36.4514L200.442 36.3416C191.523 36.0854 188.672 32.4988 188.672 28.3998V28.0705C188.672 23.8617 190.938 20.0189 202.196 20.0189H203.439C215.464 20.0189 217.109 24.4107 217.109 27.9973V28.3998H209.031C208.848 27.1921 208.154 25.3988 202.927 25.3988H202.562C197.737 25.3988 196.604 26.3138 196.604 27.8143C196.604 29.205 197.591 30.2297 201.867 30.4127L205.632 30.5591C215.318 30.9251 217.657 34.1091 217.657 38.5375V38.9766C217.657 42.9658 215.83 48.0529 203.658 48.0529Z" fill="white"/>
<path d="M223.279 20.3483H230.809V41.1725H247.439V47.5772H223.279V20.3483Z" fill="white"/>
<path d="M266.61 19.9091H268.218C280.938 19.9091 284.556 27.4117 284.556 33.3406V34.4385C284.556 40.2942 280.938 48.0163 268.218 48.0163H266.61C253.89 48.0163 250.271 40.2942 250.271 34.4385V33.3406C250.271 27.4117 253.89 19.9091 266.61 19.9091ZM276.734 33.6333C276.734 30.2663 275.09 26.1308 267.414 26.1308C259.811 26.1308 258.093 30.2663 258.093 33.6333V34.1457C258.093 37.4395 259.921 41.7581 267.414 41.7581C275.053 41.7581 276.734 37.4395 276.734 34.1457V33.6333Z" fill="white"/>
<path d="M297.981 47.5772V26.5699H287.454V20.3483H316V26.5699H305.474V47.5772H297.981Z" fill="white"/>
<g clip-path="url(#clip0_8737_2022)">
<path d="M50.135 0H20.7742C9.30092 0 0 9.31283 0 20.8008V50.1992C0 61.6872 9.30092 71 20.7742 71H50.135C61.6083 71 70.9092 61.6872 70.9092 50.1992V20.8008C70.9092 9.31283 61.6083 0 50.135 0Z" fill="url(#paint0_linear_8737_2022)"/>
<path d="M43.4582 15.6409L29.2181 21.6953L17.4641 54.8989L33.5447 71.0001H50.1378C61.6106 71.0001 70.9119 61.6869 70.9119 50.1993V43.1284L43.4595 15.6409H43.4582Z" fill="url(#paint1_linear_8737_2022)"/>
<path d="M46.6035 55.7695C43.2533 55.7695 41.4432 55.23 41.1745 54.1498L39.2688 46.6893H30.0852L28.4108 53.86C28.1795 55.0567 26.332 55.653 22.8655 55.653C21.018 55.653 19.6497 55.5476 18.7647 55.3341C17.8783 55.1233 17.4365 54.9583 17.4365 54.8432L27.6588 15.6919C27.6588 15.3841 30.2957 15.2288 35.5724 15.2288C40.849 15.2288 43.4846 15.3827 43.4846 15.6919L53.477 54.9028C53.477 55.1732 52.5906 55.3854 50.8206 55.5393C49.0493 55.6918 47.6436 55.7695 46.6035 55.7695ZM31.5283 39.3452H37.593L34.9935 27.3736H34.6472L31.5283 39.3452Z" fill="white"/>
</g>
<defs>
<linearGradient id="paint0_linear_8737_2022" x1="6.08407" y1="6.09186" x2="64.9003" y2="64.8329" gradientUnits="userSpaceOnUse">
<stop stop-color="#54BDFF"/>
<stop offset="1" stop-color="#0042C7"/>
</linearGradient>
<linearGradient id="paint1_linear_8737_2022" x1="23.0607" y1="27.8606" x2="62.4934" y2="67.2429" gradientUnits="userSpaceOnUse">
<stop stop-opacity="0.5"/>
<stop offset="1" stop-opacity="0"/>
</linearGradient>
<clipPath id="clip0_8737_2022">
<rect width="70.9092" height="71" fill="white"/>
</clipPath>
</defs>
</svg>
