<svg width="14" height="14" viewBox="0 0 14 14" fill="none" xmlns="http://www.w3.org/2000/svg">
<path fill-rule="evenodd" clip-rule="evenodd" d="M12.8333 7C12.8333 7.805 12.18 8.45834 11.375 8.45834H8.45834V11.375C8.45834 12.18 7.80501 12.8333 7 12.8333C6.195 12.8333 5.54167 12.18 5.54167 11.375V8.45834H2.62501C1.82001 8.45834 1.16667 7.805 1.16667 7C1.16667 6.195 1.82001 5.54167 2.62501 5.54167H5.54167V2.625C5.54167 1.82 6.195 1.16667 7 1.16667C7.80501 1.16667 8.45834 1.82 8.45834 2.625V5.54167H11.375C12.18 5.54167 12.8333 6.195 12.8333 7Z" fill="#44B52D"/>
</svg>
